<?xml version="1.0" encoding="UTF-8"?>
<svg width="20px" height="20px" viewBox="0 0 20 20" version="1.1" xmlns="http://www.w3.org/2000/svg" xmlns:xlink="http://www.w3.org/1999/xlink">
    <title>icone mockup-05</title>
    <g id="Symbols" stroke="none" stroke-width="1" fill="none" fill-rule="evenodd">
        <g id="Icon-/-Sidebar-/-passive-/-calendar" fill="#A9C8E8" fill-rule="nonzero">
            <g id="icone-mockup-05">
                <path d="M18,0 C19.104,0 20,0.896 20,2 L20,18 C20,19.104 19.104,20 18,20 L2,20 C0.896,20 0,19.104 0,18 L0,2 C0,0.896 0.896,0 2,0 L18,0 Z M4.852,13.422 C4.10862473,13.422 3.506,14.0246247 3.506,14.768 C3.506,15.5113753 4.10862473,16.114 4.852,16.114 C5.59537527,16.114 6.198,15.5113753 6.198,14.768 C6.198,14.0246247 5.59537527,13.422 4.852,13.422 Z M10,13.422 C9.25662473,13.422 8.654,14.0246247 8.654,14.768 C8.654,15.5113753 9.25662473,16.114 10,16.114 C10.7433753,16.114 11.346,15.5113753 11.346,14.768 C11.346,14.0246247 10.7433753,13.422 10,13.422 Z M15.148,13.422 C14.4046247,13.422 13.802,14.0246247 13.802,14.768 C13.802,15.5113753 14.4046247,16.114 15.148,16.114 C15.8913753,16.114 16.494,15.5113753 16.494,14.768 C16.494,14.0246247 15.8913753,13.422 15.148,13.422 Z M4.852,8.232 C4.10862473,8.232 3.506,8.83462473 3.506,9.578 C3.506,10.3213753 4.10862473,10.924 4.852,10.924 C5.59537527,10.924 6.198,10.3213753 6.198,9.578 C6.198,8.83462473 5.59537527,8.232 4.852,8.232 Z M10,8.232 C9.25662473,8.232 8.654,8.83462473 8.654,9.578 C8.654,10.3213753 9.25662473,10.924 10,10.924 C10.7433753,10.924 11.346,10.3213753 11.346,9.578 C11.346,8.83462473 10.7433753,8.232 10,8.232 Z M15.148,8.232 C14.4046247,8.232 13.802,8.83462473 13.802,9.578 C13.802,10.3213753 14.4046247,10.924 15.148,10.924 C15.8913753,10.924 16.494,10.3213753 16.494,9.578 C16.494,8.83462473 15.8913753,8.232 15.148,8.232 Z" id="Combined-Shape"></path>
            </g>
        </g>
    </g>
</svg>