<?xml version="1.0" encoding="UTF-8"?>
<svg width="20px" height="20px" viewBox="0 0 20 20" version="1.1" xmlns="http://www.w3.org/2000/svg" xmlns:xlink="http://www.w3.org/1999/xlink">
    <title>Fill 1</title>
    <g id="Symbols" stroke="none" stroke-width="1" fill="none" fill-rule="evenodd">
        <g id="Icon-/-Sidebar-/-passive-/-settings" fill="#A9C8E8">
            <path d="M13.3163079,9.92245372 C13.3555125,8.12293916 11.7856724,6.57742174 9.96790469,6.59288244 C8.19210248,6.6072388 6.67140619,8.12956517 6.66642455,9.92742323 C6.661467,11.7401898 8.19541555,13.2846029 9.99993098,13.2823966 C11.8011333,13.2807377 13.3698691,11.7468158 13.3163079,9.92245372 M8.74759285,0 L11.1418336,0 C11.4378007,0.184976182 11.5979321,0.456090527 11.6807587,0.792360661 C11.7674505,1.14574799 11.9032861,1.48864414 11.9728605,1.84479231 C12.0225564,2.1015503 12.1512138,2.2451139 12.3770543,2.33787808 C12.9043836,2.55543215 13.428952,2.77850791 13.9579379,3.00103149 C14.4455105,2.72715631 14.9253525,2.45162462 15.4107164,2.18603196 C15.7718403,1.98890808 16.1246816,2.0330815 16.4195443,2.31026969 C16.8248425,2.69071324 17.2185449,3.08496099 17.595682,3.49301292 C17.8529966,3.77185761 17.9054534,4.10978425 17.7298611,4.46151508 C17.6602867,4.60121351 17.5807732,4.73594243 17.5034684,4.87232786 C17.2991628,5.23344554 17.094305,5.59401105 16.8971777,5.94077237 C17.1208095,6.48244889 17.3333978,6.99486053 17.5437773,7.50948083 C17.6415127,7.74801728 17.7812135,7.90428074 18.062824,7.95508017 C18.417874,8.01968379 18.7624326,8.14557803 19.1097521,8.25269857 C19.7348168,8.44374859 19.9567921,8.71762378 19.9860575,9.37470335 C20.0042794,9.79158997 20.0053837,10.2106853 19.9849532,10.628124 C19.9540312,11.2410302 19.7563518,11.4823275 19.1600003,11.6706167 C18.6840234,11.8208063 18.203077,11.9571917 17.7160566,12.1013075 C17.4476985,12.7329874 17.1837577,13.3547282 16.9181604,13.9803342 C16.9932565,14.1255543 17.0589656,14.2674614 17.1368226,14.4027425 C17.318489,14.7196868 17.5156163,15.026692 17.6867912,15.3486058 C17.8767402,15.7069626 17.9490754,16.0940322 17.6553171,16.4209155 C17.2616147,16.8598888 16.8380947,17.2745668 16.4073964,17.6776492 C16.14456,17.9228116 15.8259537,17.9741632 15.4929908,17.7941566 C15.1881889,17.6290584 14.8773131,17.4738993 14.5769287,17.2999665 C14.3676535,17.1801461 14.1677653,17.044865 13.9375073,16.9703223 C13.4333695,17.1834591 12.9446925,17.4076392 12.4433155,17.5970327 C12.173853,17.6991837 12.0253173,17.8399865 11.9678909,18.1403657 C11.8894817,18.5473133 11.7580635,18.9470827 11.6189148,19.3391218 C11.4438746,19.8327597 11.2031253,19.9901275 10.6802134,19.9956492 C10.2119671,20.0011709 9.74372071,20.0017231 9.27602653,19.9956492 C8.73268406,19.988471 8.48199557,19.810673 8.31744673,19.2955006 C8.1965199,18.915057 8.09215839,18.5290918 7.99773607,18.1414701 C7.93589221,17.8858164 7.81110014,17.7096749 7.55930729,17.6102847 C7.0286649,17.4015653 6.50520082,17.1762809 5.97676714,16.9570703 C5.49913377,17.2270803 5.03751355,17.5015077 4.56374542,17.7521918 C4.11372092,17.9896239 3.85254105,17.9493157 3.48479097,17.5953762 C3.10986258,17.2337063 2.74652991,16.8593366 2.38043636,16.4877278 C2.10766077,16.2110917 2.04747344,15.8875215 2.20650051,15.5330298 C2.28435751,15.359097 2.3843016,15.1951032 2.47541085,15.026692 C2.62449873,14.7517125 2.77027353,14.4745243 2.92543536,14.20341 C3.01047066,14.0543247 3.01488808,13.9168349 2.94752245,13.7578106 C2.71119056,13.2001212 2.48590222,12.6374623 2.26392695,12.0968902 C1.76199778,11.9494614 1.30148191,11.7976153 0.833235552,11.68166 C0.432907006,11.582822 0.156266177,11.3625071 0,10.9842722 L0,8.99646847 C0.157922709,8.56798633 0.474320304,8.34325407 0.910540375,8.24331172 C1.26393385,8.16269523 1.60462725,8.02686197 1.9585729,7.95176717 C2.15293931,7.90980242 2.26668783,7.81979908 2.33902306,7.64807493 C2.53394165,7.18370188 2.72168193,6.71601583 2.9293006,6.25771664 C3.03587082,6.02359753 2.99942712,5.83972568 2.86469585,5.62769328 C2.64161622,5.27651462 2.45332376,4.90324925 2.25343558,4.53771423 C2.02207329,4.1158581 2.10489988,3.7276842 2.41577571,3.39141406 C2.73327766,3.04741358 3.06292751,2.71114345 3.40914268,2.39640785 C3.8635846,1.98283424 4.19875622,1.96903005 4.72498119,2.27990047 C5.14132288,2.52616727 5.56373852,2.76304721 5.98449762,3.00489667 C6.3036561,2.86795908 6.60569709,2.73875183 6.90829025,2.60954459 C7.22468785,2.4742635 7.54108544,2.33843024 7.86687005,2.19928398 C7.95411407,1.89062223 8.0336276,1.5885865 8.12528903,1.2909681 C8.26664642,0.829355898 8.36051656,0.343448315 8.74759285,0" id="Fill-1"></path>
        </g>
    </g>
</svg>