<?xml version="1.0" encoding="UTF-8"?>
<svg width="20px" height="23px" viewBox="0 0 20 23" version="1.1" xmlns="http://www.w3.org/2000/svg" xmlns:xlink="http://www.w3.org/1999/xlink">
    <title>Group</title>
    <g id="Symbols" stroke="none" stroke-width="1" fill="none" fill-rule="evenodd">
        <g id="Icon-/-trash" transform="translate(-2.000000, -1.000000)" fill="#CE5151" fill-rule="nonzero">
            <g id="Group" transform="translate(2.000000, 1.000000)">
                <path d="M10,-6.65988671e-16 C12.3778816,-6.65988671e-16 14.4268075,1.67432369 14.9,4.00413991 L14.9,4.00413991 L19,4.00413991 C19.5522847,4.00413991 20,4.45175761 20,5.00392202 C20,5.55608643 19.5522847,6.00370413 19,6.00370413 L19,6.00370413 L18,6.00370413 L18,19.3078047 C17.996148,21.3453505 16.3449899,22.9961488 14.307,23 L14.307,23 L5.693,23 C3.65501011,22.9961488 2.00385202,21.3453505 2,19.3078047 L2,19.3078047 L2,6.00370413 L1,6.00370413 C0.44771525,6.00370413 0,5.55608643 0,5.00392202 C0,4.45175761 0.44771525,4.00413991 1,4.00413991 L1,4.00413991 L5.1,4.00413991 C5.57319247,1.67432369 7.62211839,-6.65988671e-16 10,-6.65988671e-16 Z M16,6.00370413 L4,6.00370413 L4,19.3078047 C4.00383567,20.241026 4.75957532,20.996601 5.693,21.0004358 L5.693,21.0004358 L14.307,21.0004358 C15.2404247,20.996601 15.9961643,20.241026 16,19.3078047 L16,19.3078047 L16,6.00370413 Z M8,9.00305046 C8.55228475,9.00305046 9,9.45066816 9,10.0028326 L9,10.0028326 L9,17.0013073 C9,17.5534718 8.55228475,18.0010895 8,18.0010895 C7.44771525,18.0010895 7,17.5534718 7,17.0013073 L7,17.0013073 L7,10.0028326 C7,9.45066816 7.44771525,9.00305046 8,9.00305046 Z M12,9.00305046 C12.5522847,9.00305046 13,9.45066816 13,10.0028326 L13,10.0028326 L13,17.0013073 C13,17.5534718 12.5522847,18.0010895 12,18.0010895 C11.4477153,18.0010895 11,17.5534718 11,17.0013073 L11,17.0013073 L11,10.0028326 C11,9.45066816 11.4477153,9.00305046 12,9.00305046 Z M10,2.00457569 C8.73321457,2.00982594 7.60625455,2.81004928 7.184,4.00413991 L7.184,4.00413991 L12.816,4.00413991 C12.3937454,2.81004928 11.2667854,2.00982594 10,2.00457569 Z" id="Combined-Shape"></path>
            </g>
        </g>
    </g>
</svg>