<?xml version="1.0" encoding="UTF-8"?>
<svg width="20px" height="20px" viewBox="0 0 20 20" version="1.1" xmlns="http://www.w3.org/2000/svg" xmlns:xlink="http://www.w3.org/1999/xlink">
    <title>icone mockup-04</title>
    <g id="Symbols" stroke="none" stroke-width="1" fill="none" fill-rule="evenodd">
        <g id="Icon-/-Sidebar-/-passive-/-dashboard" fill="#A9C8E8" fill-rule="nonzero">
            <g id="icone-mockup-04" transform="translate(-0.000000, -0.000000)">
                <path d="M6.426,8.426 L2,8.426 C0.896,8.426 -3.46389584e-14,7.53 -3.46389584e-14,6.426 L-3.46389584e-14,2 C-3.46389584e-14,0.896 0.896,-3.46389584e-14 2,-3.46389584e-14 L6.426,-3.46389584e-14 C7.53,-3.46389584e-14 8.426,0.896 8.426,2 L8.426,6.426 C8.426,7.53 7.53,8.426 6.426,8.426 Z" id="Path"></path>
                <path d="M6.426,20 L2,20 C0.896,20 7.90478794e-14,19.104 7.90478794e-14,18 L7.90478794e-14,13.574 C7.90478794e-14,12.47 0.896,11.574 2,11.574 L6.426,11.574 C7.53,11.574 8.426,12.47 8.426,13.574 L8.426,18 C8.426,19.104 7.53,20 6.426,20 Z" id="Path"></path>
                <path d="M18,20 L13.574,20 C12.47,20 11.574,19.104 11.574,18 L11.574,13.574 C11.574,12.47 12.47,11.574 13.574,11.574 L18,11.574 C19.104,11.574 20,12.47 20,13.574 L20,18 C20,19.104 19.104,20 18,20 Z" id="Path"></path>
                <path d="M18,8.426 L13.574,8.426 C12.47,8.426 11.574,7.53 11.574,6.426 L11.574,2 C11.574,0.896 12.47,-3.46389584e-14 13.574,-3.46389584e-14 L18,-3.46389584e-14 C19.104,-3.46389584e-14 20,0.896 20,2 L20,6.426 C20,7.53 19.104,8.426 18,8.426 Z" id="Path"></path>
            </g>
        </g>
    </g>
</svg>